<?xml version="1.0" encoding="UTF-8"?>
<svg xmlns="http://www.w3.org/2000/svg" xmlns:xlink="http://www.w3.org/1999/xlink" width="10pt" height="10pt" viewBox="0 0 10 10" version="1.1">
<g id="surface1">
<path style=" stroke:none;fill-rule:nonzero;fill:#fff;fill-opacity:1;" d="M 7.636719 4.910156 L 8.335938 4.910156 C 8.492188 4.910156 8.621094 4.78125 8.621094 4.625 L 8.621094 3.925781 C 8.621094 3.769531 8.492188 3.640625 8.335938 3.640625 L 7.636719 3.640625 C 7.480469 3.640625 7.351562 3.769531 7.351562 3.925781 L 7.351562 4.625 C 7.351562 4.78125 7.480469 4.910156 7.636719 4.910156 Z M 7.644531 3.933594 L 8.328125 3.933594 L 8.328125 4.617188 L 7.644531 4.617188 Z M 7.636719 6.765625 L 8.335938 6.765625 C 8.492188 6.765625 8.621094 6.636719 8.621094 6.480469 L 8.621094 5.78125 C 8.621094 5.625 8.492188 5.496094 8.335938 5.496094 L 7.636719 5.496094 C 7.480469 5.496094 7.351562 5.625 7.351562 5.78125 L 7.351562 6.480469 C 7.351562 6.636719 7.480469 6.765625 7.636719 6.765625 Z M 7.644531 5.789062 L 8.328125 5.789062 L 8.328125 6.472656 L 7.644531 6.472656 Z M 5.648438 4.910156 L 6.34375 4.910156 C 6.5 4.910156 6.628906 4.78125 6.628906 4.625 L 6.628906 3.925781 C 6.628906 3.769531 6.5 3.640625 6.34375 3.640625 L 5.648438 3.640625 C 5.488281 3.640625 5.359375 3.769531 5.359375 3.925781 L 5.359375 4.625 C 5.359375 4.78125 5.488281 4.910156 5.648438 4.910156 Z M 5.652344 3.933594 L 6.335938 3.933594 L 6.335938 4.617188 L 5.652344 4.617188 Z M 2.363281 7.265625 L 1.664062 7.265625 C 1.507812 7.265625 1.378906 7.394531 1.378906 7.550781 L 1.378906 8.25 C 1.378906 8.40625 1.507812 8.535156 1.664062 8.535156 L 2.363281 8.535156 C 2.519531 8.535156 2.648438 8.40625 2.648438 8.25 L 2.648438 7.550781 C 2.648438 7.394531 2.519531 7.265625 2.363281 7.265625 Z M 2.355469 8.242188 L 1.671875 8.242188 L 1.671875 7.558594 L 2.355469 7.558594 Z M 2.363281 3.640625 L 1.664062 3.640625 C 1.507812 3.640625 1.378906 3.769531 1.378906 3.925781 L 1.378906 4.625 C 1.378906 4.78125 1.507812 4.910156 1.664062 4.910156 L 2.363281 4.910156 C 2.519531 4.910156 2.648438 4.78125 2.648438 4.625 L 2.648438 3.925781 C 2.648438 3.769531 2.519531 3.640625 2.363281 3.640625 Z M 2.355469 4.617188 L 1.671875 4.617188 L 1.671875 3.933594 L 2.355469 3.933594 Z M 5.648438 6.722656 L 6.34375 6.722656 C 6.5 6.722656 6.628906 6.59375 6.628906 6.4375 L 6.628906 5.738281 C 6.628906 5.582031 6.5 5.453125 6.34375 5.453125 L 5.648438 5.453125 C 5.488281 5.453125 5.359375 5.582031 5.359375 5.738281 L 5.359375 6.4375 C 5.359375 6.59375 5.488281 6.722656 5.648438 6.722656 Z M 5.652344 5.746094 L 6.335938 5.746094 L 6.335938 6.429688 L 5.652344 6.429688 Z M 8.765625 0.667969 L 8.140625 0.667969 L 8.140625 0.445312 C 8.140625 0.199219 7.941406 0 7.695312 0 L 7.628906 0 C 7.382812 0 7.183594 0.199219 7.183594 0.445312 L 7.183594 0.667969 L 2.820312 0.667969 L 2.820312 0.445312 C 2.820312 0.199219 2.617188 0 2.371094 0 L 2.304688 0 C 2.058594 0 1.859375 0.199219 1.859375 0.445312 L 1.859375 0.667969 L 1.234375 0.667969 C 0.828125 0.667969 0.5 1 0.5 1.402344 L 0.5 9.265625 C 0.5 9.671875 0.828125 10 1.234375 10 L 8.765625 10 C 9.171875 10 9.5 9.671875 9.5 9.265625 L 9.5 1.402344 C 9.5 1 9.171875 0.667969 8.765625 0.667969 Z M 7.476562 0.445312 C 7.476562 0.363281 7.542969 0.292969 7.628906 0.292969 L 7.695312 0.292969 C 7.777344 0.292969 7.847656 0.363281 7.847656 0.445312 L 7.847656 0.667969 L 7.476562 0.667969 Z M 2.152344 0.445312 C 2.152344 0.363281 2.222656 0.292969 2.304688 0.292969 L 2.371094 0.292969 C 2.457031 0.292969 2.527344 0.363281 2.527344 0.445312 L 2.527344 0.667969 L 2.152344 0.667969 Z M 9.207031 9.265625 C 9.207031 9.511719 9.007812 9.707031 8.765625 9.707031 L 1.234375 9.707031 C 0.992188 9.707031 0.792969 9.511719 0.792969 9.265625 C 0.917969 9.359375 1.070312 9.414062 1.234375 9.414062 L 7.171875 9.414062 C 7.367188 9.414062 7.554688 9.335938 7.691406 9.199219 L 9.207031 7.683594 Z M 7.542969 8.933594 C 7.554688 8.886719 7.558594 8.835938 7.558594 8.785156 L 7.558594 7.808594 C 7.558594 7.625 7.710938 7.472656 7.894531 7.472656 L 8.871094 7.472656 C 8.921875 7.472656 8.972656 7.46875 9.019531 7.457031 Z M 9.207031 2.761719 L 2.964844 2.761719 C 2.882812 2.761719 2.820312 2.828125 2.820312 2.910156 C 2.820312 2.988281 2.882812 3.054688 2.964844 3.054688 L 9.207031 3.054688 L 9.207031 6.847656 C 9.207031 7.03125 9.054688 7.179688 8.871094 7.179688 L 7.894531 7.179688 C 7.546875 7.179688 7.265625 7.464844 7.265625 7.808594 L 7.265625 8.785156 C 7.265625 8.972656 7.117188 9.121094 6.933594 9.121094 L 1.234375 9.121094 C 0.992188 9.121094 0.792969 8.921875 0.792969 8.679688 L 0.792969 3.054688 L 2.378906 3.054688 C 2.460938 3.054688 2.523438 2.988281 2.523438 2.910156 C 2.523438 2.828125 2.460938 2.761719 2.378906 2.761719 L 0.792969 2.761719 L 0.792969 1.402344 C 0.792969 1.160156 0.992188 0.960938 1.234375 0.960938 L 1.859375 0.960938 L 1.859375 1.394531 C 1.859375 1.640625 2.058594 1.839844 2.304688 1.839844 C 2.386719 1.839844 2.453125 1.773438 2.453125 1.691406 C 2.453125 1.609375 2.386719 1.546875 2.304688 1.546875 C 2.222656 1.546875 2.152344 1.476562 2.152344 1.394531 L 2.152344 0.960938 L 7.179688 0.960938 L 7.179688 1.394531 C 7.179688 1.640625 7.382812 1.839844 7.628906 1.839844 C 7.707031 1.839844 7.773438 1.773438 7.773438 1.691406 C 7.773438 1.609375 7.707031 1.546875 7.628906 1.546875 C 7.542969 1.546875 7.476562 1.476562 7.476562 1.394531 L 7.476562 0.960938 L 8.765625 0.960938 C 9.007812 0.960938 9.207031 1.160156 9.207031 1.402344 Z M 2.363281 5.453125 L 1.664062 5.453125 C 1.507812 5.453125 1.378906 5.582031 1.378906 5.738281 L 1.378906 6.4375 C 1.378906 6.59375 1.507812 6.722656 1.664062 6.722656 L 2.363281 6.722656 C 2.519531 6.722656 2.648438 6.59375 2.648438 6.4375 L 2.648438 5.738281 C 2.648438 5.582031 2.519531 5.453125 2.363281 5.453125 Z M 2.355469 6.429688 L 1.671875 6.429688 L 1.671875 5.746094 L 2.355469 5.746094 Z M 3.65625 4.910156 L 4.351562 4.910156 C 4.511719 4.910156 4.640625 4.78125 4.640625 4.625 L 4.640625 3.925781 C 4.640625 3.769531 4.511719 3.640625 4.351562 3.640625 L 3.65625 3.640625 C 3.5 3.640625 3.371094 3.769531 3.371094 3.925781 L 3.371094 4.625 C 3.371094 4.78125 3.5 4.910156 3.65625 4.910156 Z M 3.664062 3.933594 L 4.347656 3.933594 L 4.347656 4.617188 L 3.664062 4.617188 Z M 5.652344 8.242188 C 5.648438 8.164062 5.585938 8.101562 5.507812 8.101562 C 5.425781 8.101562 5.359375 8.167969 5.359375 8.25 C 5.359375 8.40625 5.488281 8.535156 5.648438 8.535156 L 6.34375 8.535156 C 6.5 8.535156 6.628906 8.40625 6.628906 8.25 L 6.628906 7.550781 C 6.628906 7.394531 6.5 7.265625 6.34375 7.265625 L 5.648438 7.265625 C 5.488281 7.265625 5.359375 7.394531 5.359375 7.550781 L 5.359375 7.753906 C 5.359375 7.832031 5.425781 7.898438 5.507812 7.898438 C 5.585938 7.898438 5.652344 7.832031 5.652344 7.753906 L 5.652344 7.558594 L 6.335938 7.558594 L 6.335938 8.242188 Z M 3.65625 6.722656 L 4.351562 6.722656 C 4.511719 6.722656 4.640625 6.59375 4.640625 6.4375 L 4.640625 5.738281 C 4.640625 5.582031 4.511719 5.453125 4.351562 5.453125 L 3.65625 5.453125 C 3.5 5.453125 3.371094 5.582031 3.371094 5.738281 L 3.371094 6.4375 C 3.371094 6.59375 3.5 6.722656 3.65625 6.722656 Z M 3.664062 5.746094 L 4.347656 5.746094 L 4.347656 6.429688 L 3.664062 6.429688 Z M 3.65625 8.535156 L 4.351562 8.535156 C 4.511719 8.535156 4.640625 8.40625 4.640625 8.25 L 4.640625 7.550781 C 4.640625 7.394531 4.511719 7.265625 4.351562 7.265625 L 3.65625 7.265625 C 3.5 7.265625 3.371094 7.394531 3.371094 7.550781 L 3.371094 8.25 C 3.371094 8.40625 3.5 8.535156 3.65625 8.535156 Z M 3.664062 7.558594 L 4.347656 7.558594 L 4.347656 8.242188 L 3.664062 8.242188 Z M 3.664062 7.558594 "/>
</g>
</svg>
