<?xml version="1.0" encoding="UTF-8"?>
<svg xmlns="http://www.w3.org/2000/svg" xmlns:xlink="http://www.w3.org/1999/xlink" width="8pt" height="8pt" viewBox="0 0 8 8" version="1.1">
<g id="surface1">
<path style=" stroke:none;fill-rule:nonzero;fill:#526278;fill-opacity:1;" d="M 7.871094 3.6875 L 4.984375 0.800781 C 4.902344 0.71875 4.789062 0.671875 4.671875 0.671875 C 4.554688 0.671875 4.445312 0.71875 4.363281 0.800781 L 4.101562 1.0625 C 4.019531 1.144531 3.972656 1.253906 3.972656 1.371094 C 3.972656 1.488281 4.019531 1.601562 4.101562 1.683594 L 5.785156 3.375 L 0.433594 3.375 C 0.191406 3.375 0 3.5625 0 3.804688 L 0 4.175781 C 0 4.417969 0.191406 4.625 0.433594 4.625 L 5.804688 4.625 L 4.101562 6.324219 C 4.019531 6.40625 3.972656 6.511719 3.972656 6.628906 C 3.972656 6.746094 4.019531 6.855469 4.101562 6.9375 L 4.363281 7.199219 C 4.445312 7.28125 4.554688 7.328125 4.671875 7.328125 C 4.789062 7.328125 4.902344 7.28125 4.984375 7.199219 L 7.871094 4.3125 C 7.953125 4.226562 8 4.117188 8 4 C 8 3.882812 7.953125 3.773438 7.871094 3.6875 Z M 7.871094 3.6875 "/>
</g>
</svg>
