<?xml version="1.0" encoding="UTF-8"?>
<svg xmlns="http://www.w3.org/2000/svg" xmlns:xlink="http://www.w3.org/1999/xlink" width="10pt" height="10pt" viewBox="0 0 10 10" version="1.1">
<g id="surface1">
<path style=" stroke:none;fill-rule:nonzero;fill:#fff;fill-opacity:1;" d="M 6.507812 4.636719 C 7.148438 4.171875 7.5625 3.414062 7.5625 2.5625 C 7.5625 1.148438 6.414062 0 5 0 C 3.585938 0 2.4375 1.148438 2.4375 2.5625 C 2.4375 3.414062 2.851562 4.171875 3.492188 4.636719 C 1.902344 5.246094 0.769531 6.789062 0.769531 8.589844 C 0.769531 9.367188 1.402344 10 2.179688 10 L 7.820312 10 C 8.597656 10 9.230469 9.367188 9.230469 8.589844 C 9.230469 6.789062 8.097656 5.246094 6.507812 4.636719 Z M 3.207031 2.5625 C 3.207031 1.574219 4.011719 0.769531 5 0.769531 C 5.988281 0.769531 6.792969 1.574219 6.792969 2.5625 C 6.792969 3.554688 5.988281 4.359375 5 4.359375 C 4.011719 4.359375 3.207031 3.554688 3.207031 2.5625 Z M 7.820312 9.230469 L 2.179688 9.230469 C 1.824219 9.230469 1.539062 8.941406 1.539062 8.589844 C 1.539062 6.679688 3.089844 5.128906 5 5.128906 C 6.910156 5.128906 8.460938 6.679688 8.460938 8.589844 C 8.460938 8.941406 8.175781 9.230469 7.820312 9.230469 Z M 7.820312 9.230469 "/>
</g>
</svg>
